<svg height="512" viewBox="0 0 64 64" width="512" xmlns="http://www.w3.org/2000/svg"><g id="File_system" data-name="File system"><path d="m61 32h-58l7.59-27.53a2 2 0 0 1 1.93-1.47h38.96a2 2 0 0 1 1.93 1.47z" fill="#005ece"/><path d="m61 32v25a4 4 0 0 1 -4 4h-50a4 4 0 0 1 -4-4v-25z" fill="#2488ff"/><path d="m56 32v22a4 4 0 0 1 -4 4h-48.859a3.989 3.989 0 0 0 3.859 3h50a4 4 0 0 0 4-4v-25z" fill="#006df0"/><path d="m8.253 28h47.494l-1.931-7h-43.632z" fill="#5eac24"/><path d="m49.954 7h-35.908l-1.931 7h39.77z" fill="#d80027"/><path d="m12.115 14-1.931 7h43.632l-1.931-7z" fill="#ffcd00"/><path d="m24.544 42.632a2 2 0 0 0 1.898 1.368h11.116a2 2 0 0 0 1.9-1.368l1.1-3.316a1 1 0 0 0 -.945-1.316h-15.226a1 1 0 0 0 -.948 1.316z" fill="#003f8a"/><g fill="#231f20"><path d="m61.964 31.734-7.595-27.534a3.009 3.009 0 0 0 -2.892-2.2h-38.954a3.009 3.009 0 0 0 -2.892 2.2l-7.6 27.532a1 1 0 0 0 -.031.268v25a5.006 5.006 0 0 0 5 5h50a5.006 5.006 0 0 0 5-5v-25a1 1 0 0 0 -.036-.266zm-50.4-27a1 1 0 0 1 .959-.734h38.954a1 1 0 0 1 .964.734l7.246 26.266h-55.374zm45.436 55.266h-50a3 3 0 0 1 -3-3v-24h56v24a3 3 0 0 1 -3 3z"/><path d="m7.458 28.606a1 1 0 0 0 .8.394h47.489a1 1 0 0 0 .964-1.266l-5.793-21a1 1 0 0 0 -.964-.734h-35.908a1 1 0 0 0 -.964.734l-5.793 21a1 1 0 0 0 .169.872zm2.108-1.606 1.379-5h42.11l1.379 5zm3.31-12h38.248l1.376 5h-41zm1.932-7h34.384l1.38 5h-37.144z"/><path d="m39.613 37h-15.226a2 2 0 0 0 -1.9 2.632l1.113 3.317a3 3 0 0 0 2.841 2.051h11.118a3 3 0 0 0 2.846-2.052l1.1-3.315a2 2 0 0 0 -1.892-2.633zm-1.106 5.316a1 1 0 0 1 -.948.684h-11.118a1 1 0 0 1 -.948-.684l-1.106-3.316h15.225z"/></g></g></svg>